<svg width="21" height="24" viewBox="0 0 21 24" fill="none" xmlns="http://www.w3.org/2000/svg">
<path d="M9.89852 10.5461C8.88564 10.5461 7.89552 10.2457 7.05335 9.68298C6.21117 9.12026 5.55478 8.32044 5.16717 7.38467C4.77956 6.4489 4.67815 5.4192 4.87575 4.42579C5.07335 3.43238 5.56109 2.51988 6.2773 1.80367C6.99351 1.08746 7.90602 0.599717 8.89943 0.402115C9.89284 0.204514 10.9225 0.30593 11.8583 0.693539C12.7941 1.08115 13.5939 1.73754 14.1566 2.57971C14.7193 3.42189 15.0197 4.41201 15.0197 5.42488C15.0197 6.7831 14.4801 8.08569 13.5197 9.0461C12.5593 10.0065 11.2567 10.5461 9.89852 10.5461ZM9.89852 2.35218C9.29079 2.35218 8.69672 2.53239 8.19141 2.87002C7.68611 3.20766 7.29227 3.68755 7.05971 4.24901C6.82714 4.81047 6.76629 5.42829 6.88485 6.02434C7.00342 6.62038 7.29606 7.16789 7.72579 7.59761C8.15551 8.02734 8.70302 8.31998 9.29906 8.43855C9.89511 8.55711 10.5129 8.49626 11.0744 8.26369C11.6359 8.03113 12.1157 7.63729 12.4534 7.13199C12.791 6.62668 12.9712 6.03261 12.9712 5.42488C12.9712 4.60995 12.6475 3.8284 12.0712 3.25216C11.495 2.67591 10.7134 2.35218 9.89852 2.35218Z" fill="black" fill-opacity="0.5"/>
<path d="M19.4604 23.5197H1.02423C0.75259 23.5197 0.492072 23.4118 0.299991 23.2197C0.10791 23.0276 0 22.7671 0 22.4955V19.4228C0 17.2496 0.863281 15.1655 2.39993 13.6288C3.93658 12.0922 6.02072 11.2289 8.19387 11.2289H12.2908C14.464 11.2289 16.5481 12.0922 18.0848 13.6288C19.6214 15.1655 20.4847 17.2496 20.4847 19.4228V22.4955C20.4847 22.7671 20.3768 23.0276 20.1847 23.2197C19.9926 23.4118 19.7321 23.5197 19.4604 23.5197ZM2.04847 21.4712H18.4362V19.4228C18.4362 17.7929 17.7888 16.2298 16.6363 15.0773C15.4838 13.9248 13.9207 13.2773 12.2908 13.2773H8.19387C6.56401 13.2773 5.0009 13.9248 3.84842 15.0773C2.69593 16.2298 2.04847 17.7929 2.04847 19.4228V21.4712Z" fill="black" fill-opacity="0.5"/>
</svg>
