<svg version="1.1" xmlns="http://www.w3.org/2000/svg" xmlns:xlink="http://www.w3.org/1999/xlink" x="0px" y="0px" viewBox="0 0 1000 1000" enable-background="new 0 0 1000 1000" xml:space="preserve">
<g><path d="M500,10C229.4,10,10,229.4,10,500c0,270.6,219.4,490,490,490c270.6,0,490-219.4,490-490C990,229.4,770.6,10,500,10L500,10z M757.7,671.1c23.9,23.9,23.9,62.7,0,86.6c-12,12-27.6,17.9-43.3,17.9c-15.7,0-31.3-6-43.3-17.9L500,586.6L328.9,757.7c-12,12-27.6,17.9-43.3,17.9c-15.7,0-31.3-6-43.3-17.9c-23.9-23.9-23.9-62.7,0-86.6L413.4,500L242.3,328.9c-23.9-23.9-23.9-62.7,0-86.6c23.9-23.9,62.7-23.9,86.6,0L500,413.4l171.1-171.1c23.9-23.9,62.7-23.9,86.6,0c23.9,23.9,23.9,62.7,0,86.6L586.6,500L757.7,671.1L757.7,671.1z"/></g>
</svg>